<svg width="186" height="36" viewBox="0 0 186 36" fill="none" xmlns="http://www.w3.org/2000/svg">
<path d="M53.552 9.248V26H50.192V18.872H43.016V26H39.656V9.248H43.016V16.136H50.192V9.248H53.552ZM62.7631 26.216C61.4831 26.216 60.3311 25.936 59.3071 25.376C58.2831 24.8 57.4751 23.992 56.8831 22.952C56.3071 21.912 56.0191 20.712 56.0191 19.352C56.0191 17.992 56.3151 16.792 56.9071 15.752C57.5151 14.712 58.3391 13.912 59.3791 13.352C60.4191 12.776 61.5791 12.488 62.8591 12.488C64.1391 12.488 65.2991 12.776 66.3391 13.352C67.3791 13.912 68.1951 14.712 68.7871 15.752C69.3951 16.792 69.6991 17.992 69.6991 19.352C69.6991 20.712 69.3871 21.912 68.7631 22.952C68.1551 23.992 67.3231 24.8 66.2671 25.376C65.2271 25.936 64.0591 26.216 62.7631 26.216ZM62.7631 23.288C63.3711 23.288 63.9391 23.144 64.4671 22.856C65.0111 22.552 65.4431 22.104 65.7631 21.512C66.0831 20.92 66.2431 20.2 66.2431 19.352C66.2431 18.088 65.9071 17.12 65.2351 16.448C64.5791 15.76 63.7711 15.416 62.8111 15.416C61.8511 15.416 61.0431 15.76 60.3871 16.448C59.7471 17.12 59.4271 18.088 59.4271 19.352C59.4271 20.616 59.7391 21.592 60.3631 22.28C61.0031 22.952 61.8031 23.288 62.7631 23.288ZM88.6758 12.512C90.3078 12.512 91.6198 13.016 92.6118 14.024C93.6198 15.016 94.1238 16.408 94.1238 18.2V26H90.7638V18.656C90.7638 17.616 90.4998 16.824 89.9718 16.28C89.4438 15.72 88.7238 15.44 87.8118 15.44C86.8998 15.44 86.1718 15.72 85.6278 16.28C85.0998 16.824 84.8358 17.616 84.8358 18.656V26H81.4758V18.656C81.4758 17.616 81.2118 16.824 80.6838 16.28C80.1558 15.72 79.4358 15.44 78.5238 15.44C77.5958 15.44 76.8598 15.72 76.3158 16.28C75.7878 16.824 75.5238 17.616 75.5238 18.656V26H72.1638V12.704H75.5238V14.312C75.9558 13.752 76.5078 13.312 77.1798 12.992C77.8678 12.672 78.6198 12.512 79.4358 12.512C80.4758 12.512 81.4038 12.736 82.2198 13.184C83.0358 13.616 83.6678 14.24 84.1158 15.056C84.5478 14.288 85.1718 13.672 85.9878 13.208C86.8198 12.744 87.7158 12.512 88.6758 12.512ZM109.672 19.064C109.672 19.544 109.64 19.976 109.576 20.36H99.8563C99.9363 21.32 100.272 22.072 100.864 22.616C101.456 23.16 102.184 23.432 103.048 23.432C104.296 23.432 105.184 22.896 105.712 21.824H109.336C108.952 23.104 108.216 24.16 107.128 24.992C106.04 25.808 104.704 26.216 103.12 26.216C101.84 26.216 100.688 25.936 99.6643 25.376C98.6563 24.8 97.8643 23.992 97.2883 22.952C96.7283 21.912 96.4482 20.712 96.4482 19.352C96.4482 17.976 96.7283 16.768 97.2883 15.728C97.8483 14.688 98.6323 13.888 99.6403 13.328C100.648 12.768 101.808 12.488 103.12 12.488C104.384 12.488 105.512 12.76 106.504 13.304C107.512 13.848 108.288 14.624 108.832 15.632C109.392 16.624 109.672 17.768 109.672 19.064ZM106.192 18.104C106.176 17.24 105.864 16.552 105.256 16.04C104.648 15.512 103.904 15.248 103.024 15.248C102.192 15.248 101.488 15.504 100.912 16.016C100.352 16.512 100.008 17.208 99.8803 18.104H106.192ZM117.213 26.216C116.125 26.216 115.149 26.024 114.285 25.64C113.421 25.24 112.733 24.704 112.221 24.032C111.725 23.36 111.453 22.616 111.405 21.8H114.789C114.853 22.312 115.101 22.736 115.533 23.072C115.981 23.408 116.533 23.576 117.189 23.576C117.829 23.576 118.325 23.448 118.677 23.192C119.045 22.936 119.229 22.608 119.229 22.208C119.229 21.776 119.005 21.456 118.557 21.248C118.125 21.024 117.429 20.784 116.469 20.528C115.477 20.288 114.661 20.04 114.021 19.784C113.397 19.528 112.853 19.136 112.389 18.608C111.941 18.08 111.717 17.368 111.717 16.472C111.717 15.736 111.925 15.064 112.341 14.456C112.773 13.848 113.381 13.368 114.165 13.016C114.965 12.664 115.901 12.488 116.973 12.488C118.557 12.488 119.821 12.888 120.765 13.688C121.709 14.472 122.229 15.536 122.325 16.88H119.109C119.061 16.352 118.837 15.936 118.437 15.632C118.053 15.312 117.533 15.152 116.877 15.152C116.269 15.152 115.797 15.264 115.461 15.488C115.141 15.712 114.981 16.024 114.981 16.424C114.981 16.872 115.205 17.216 115.653 17.456C116.101 17.68 116.797 17.912 117.741 18.152C118.701 18.392 119.493 18.64 120.117 18.896C120.741 19.152 121.277 19.552 121.725 20.096C122.189 20.624 122.429 21.328 122.445 22.208C122.445 22.976 122.229 23.664 121.797 24.272C121.381 24.88 120.773 25.36 119.973 25.712C119.189 26.048 118.269 26.216 117.213 26.216ZM124.339 19.352C124.339 17.976 124.619 16.776 125.179 15.752C125.739 14.712 126.515 13.912 127.507 13.352C128.499 12.776 129.635 12.488 130.915 12.488C132.563 12.488 133.923 12.904 134.995 13.736C136.083 14.552 136.811 15.704 137.179 17.192H133.555C133.363 16.616 133.035 16.168 132.571 15.848C132.123 15.512 131.563 15.344 130.891 15.344C129.931 15.344 129.171 15.696 128.611 16.4C128.051 17.088 127.771 18.072 127.771 19.352C127.771 20.616 128.051 21.6 128.611 22.304C129.171 22.992 129.931 23.336 130.891 23.336C132.251 23.336 133.139 22.728 133.555 21.512H137.179C136.811 22.952 136.083 24.096 134.995 24.944C133.907 25.792 132.547 26.216 130.915 26.216C129.635 26.216 128.499 25.936 127.507 25.376C126.515 24.8 125.739 24 125.179 22.976C124.619 21.936 124.339 20.728 124.339 19.352ZM138.776 19.304C138.776 17.96 139.04 16.768 139.568 15.728C140.112 14.688 140.84 13.888 141.752 13.328C142.68 12.768 143.712 12.488 144.848 12.488C145.84 12.488 146.704 12.688 147.44 13.088C148.192 13.488 148.792 13.992 149.24 14.6V12.704H152.624V26H149.24V24.056C148.808 24.68 148.208 25.2 147.44 25.616C146.688 26.016 145.816 26.216 144.824 26.216C143.704 26.216 142.68 25.928 141.752 25.352C140.84 24.776 140.112 23.968 139.568 22.928C139.04 21.872 138.776 20.664 138.776 19.304ZM149.24 19.352C149.24 18.536 149.08 17.84 148.76 17.264C148.44 16.672 148.008 16.224 147.464 15.92C146.92 15.6 146.336 15.44 145.712 15.44C145.088 15.44 144.512 15.592 143.984 15.896C143.456 16.2 143.024 16.648 142.688 17.24C142.368 17.816 142.208 18.504 142.208 19.304C142.208 20.104 142.368 20.808 142.688 21.416C143.024 22.008 143.456 22.464 143.984 22.784C144.528 23.104 145.104 23.264 145.712 23.264C146.336 23.264 146.92 23.112 147.464 22.808C148.008 22.488 148.44 22.04 148.76 21.464C149.08 20.872 149.24 20.168 149.24 19.352ZM159.266 14.624C159.698 14.016 160.29 13.512 161.042 13.112C161.81 12.696 162.682 12.488 163.658 12.488C164.794 12.488 165.818 12.768 166.73 13.328C167.658 13.888 168.386 14.688 168.914 15.728C169.458 16.752 169.73 17.944 169.73 19.304C169.73 20.664 169.458 21.872 168.914 22.928C168.386 23.968 167.658 24.776 166.73 25.352C165.818 25.928 164.794 26.216 163.658 26.216C162.682 26.216 161.818 26.016 161.066 25.616C160.33 25.216 159.73 24.712 159.266 24.104V32.336H155.906V12.704H159.266V14.624ZM166.298 19.304C166.298 18.504 166.13 17.816 165.794 17.24C165.474 16.648 165.042 16.2 164.498 15.896C163.97 15.592 163.394 15.44 162.77 15.44C162.162 15.44 161.586 15.6 161.042 15.92C160.514 16.224 160.082 16.672 159.746 17.264C159.426 17.856 159.266 18.552 159.266 19.352C159.266 20.152 159.426 20.848 159.746 21.44C160.082 22.032 160.514 22.488 161.042 22.808C161.586 23.112 162.162 23.264 162.77 23.264C163.394 23.264 163.97 23.104 164.498 22.784C165.042 22.464 165.474 22.008 165.794 21.416C166.13 20.824 166.298 20.12 166.298 19.304ZM184.532 19.064C184.532 19.544 184.5 19.976 184.436 20.36H174.716C174.796 21.32 175.132 22.072 175.724 22.616C176.316 23.16 177.044 23.432 177.908 23.432C179.156 23.432 180.044 22.896 180.572 21.824H184.196C183.812 23.104 183.076 24.16 181.988 24.992C180.9 25.808 179.564 26.216 177.98 26.216C176.7 26.216 175.548 25.936 174.524 25.376C173.516 24.8 172.724 23.992 172.148 22.952C171.588 21.912 171.308 20.712 171.308 19.352C171.308 17.976 171.588 16.768 172.148 15.728C172.708 14.688 173.492 13.888 174.5 13.328C175.508 12.768 176.668 12.488 177.98 12.488C179.244 12.488 180.372 12.76 181.364 13.304C182.372 13.848 183.148 14.624 183.692 15.632C184.252 16.624 184.532 17.768 184.532 19.064ZM181.052 18.104C181.036 17.24 180.724 16.552 180.116 16.04C179.508 15.512 178.764 15.248 177.884 15.248C177.052 15.248 176.348 15.504 175.772 16.016C175.212 16.512 174.868 17.208 174.74 18.104H181.052Z" fill="url(#paint0_linear_105_2)"/>
<g clip-path="url(#clip0_105_2)">
<path d="M5.625 6.375V24.375H23.625V26.625H3.375V6.375H5.625ZM22.8296 10.0796L24.4204 11.6704L18 18.0907L14.625 14.7169L9.79537 19.5454L8.20463 17.9546L14.625 11.5342L18 14.9081L22.8296 10.0796Z" fill="url(#paint1_linear_105_2)"/>
</g>
<defs>
<linearGradient id="paint0_linear_105_2" x1="112" y1="0" x2="112" y2="36" gradientUnits="userSpaceOnUse">
<stop stop-color="#0F31E9"/>
<stop offset="1" stop-color="#0FA7E9"/>
</linearGradient>
<linearGradient id="paint1_linear_105_2" x1="13.8977" y1="6.375" x2="13.8977" y2="26.625" gradientUnits="userSpaceOnUse">
<stop stop-color="#11AEE0"/>
<stop offset="1" stop-color="#1432D1"/>
</linearGradient>
<clipPath id="clip0_105_2">
<rect width="27" height="27" fill="white" transform="translate(0 3)"/>
</clipPath>
</defs>
</svg>
